# xmcd
# 
# Track frame offsets:
#     182
#     4695
#     21495
#     40712
#     55665
#     71427
#     84117
#     100355
#     114900
#     129380
#     144817
#     160750
# 
# Disc length: 2166
# 
# Revision: 2
# Processed by: cddbd v1.5.2PL0 Copyright (c) Steve Scherf et al.
# Submitted via: fre:ac v1.0.17
# 
DISCID=8708740c
DTITLE=Various Artist - Farther Down The Road
DYEAR=1994
DGENRE=Country
TTITLE0=Introduction
TTITLE1=Turn It Loose - The Judds
TTITLE2=Mama Knows The Highway - Hal Ketchum
TTITLE3=Eighteen Wheels And A Dozen Roses - Kathy Mattea
TTITLE4=All Roads Lead To You - Steve Wariner
TTITLE5=Killin' Time - Clint Black
TTITLE6=I'm No Stranger To The Rain - Keith Whitley
TTITLE7=Dixie Road - Lee Greenwood
TTITLE8=Blue Side Of Town - Patty Loveless
TTITLE9=That Rock Won't Roll - Restless Heart
TTITLE10=The Closer You Get - Alabama
TTITLE11=Introduction Closing
EXTD=
EXTT0=
EXTT1=
EXTT2=
EXTT3=
EXTT4=
EXTT5=
EXTT6=
EXTT7=
EXTT8=
EXTT9=
EXTT10=
EXTT11=
PLAYORDER=
